<svg xmlns="http://www.w3.org/2000/svg" viewBox="0 0 70 34.13"><defs><style>.cls-1{fill:#1d1d1b;}</style></defs><g id="Layer_2" data-name="Layer 2"><g id="Layer_1-2" data-name="Layer 1"><path class="cls-1" d="M24.1,24.57H0V0H24.1Zm-23-1.17H23V1.17H1.15Z"/><path class="cls-1" d="M47.05,24.57H23V0h24.1ZM24.1,23.4H45.9V1.17H24.1Z"/><path d="M58,.59a11.25,11.25,0,0,0-6.37,2,11.61,11.61,0,0,0-4.23,5.25,11.88,11.88,0,0,0,2.49,12.75,11.43,11.43,0,0,0,5.87,3.2,11.24,11.24,0,0,0,6.63-.67,11.48,11.48,0,0,0,5.15-4.3,11.92,11.92,0,0,0,1.07-11A11.73,11.73,0,0,0,66.08,4a11.37,11.37,0,0,0-3.73-2.53A11.12,11.12,0,0,0,58,.59Zm0,18.08a6.19,6.19,0,0,1-3.48-1.08,6.33,6.33,0,0,1-2.3-2.86,6.48,6.48,0,0,1,1.35-7A6.23,6.23,0,0,1,56.73,6a6.16,6.16,0,0,1,3.62.36,6.3,6.3,0,0,1,2.81,2.35,6.54,6.54,0,0,1,.58,6A6.22,6.22,0,0,1,58,18.67Z"/><path class="cls-1" d="M70,24.57H45.9V0H70Zm-23-1.17h21.8V1.17H47.05Z"/><path d="M23.52,22v2H18.31V22a6.46,6.46,0,0,0-1.83-4.51,6.18,6.18,0,0,0-8.86,0A6.46,6.46,0,0,0,5.79,22v2H.57V22a11.82,11.82,0,0,1,3.36-8.27,11.31,11.31,0,0,1,16.23,0A11.77,11.77,0,0,1,23.52,22Z"/><path d="M46.48,2.57v-2H41.26v2a6.46,6.46,0,0,1-1.83,4.51,6.18,6.18,0,0,1-8.86,0,6.46,6.46,0,0,1-1.83-4.51v-2H23.52v2a11.78,11.78,0,0,0,3.37,8.27,11.3,11.3,0,0,0,16.22,0A11.78,11.78,0,0,0,46.48,2.57Z"/><path d="M5.2,28.07a1.39,1.39,0,0,1,1,.4,1.6,1.6,0,0,1,.37,1.11v2.65H5.94V29.68c0-.67-.3-1-.91-1a.9.9,0,0,0-.75.35A1.51,1.51,0,0,0,4,30v2.26H3.34V29.68c0-.67-.3-1-.91-1a.92.92,0,0,0-.76.35,1.45,1.45,0,0,0-.28.95v2.26H.72V28.14H1.3l.06.64h0a1.29,1.29,0,0,1,1.23-.71,1.25,1.25,0,0,1,1.23.71h0A1.37,1.37,0,0,1,5.2,28.07Z"/><path d="M13,32.3a1.45,1.45,0,0,1-1-.36,1.12,1.12,0,0,1-.4-.9,1.14,1.14,0,0,1,.43-.92,1.89,1.89,0,0,1,1.26-.36h1V29.5a.87.87,0,0,0-.23-.61,1,1,0,0,0-.71-.24,1,1,0,0,0-.67.21.73.73,0,0,0-.24.52h-.64a1.16,1.16,0,0,1,.43-.95,1.71,1.71,0,0,1,1.12-.36,1.68,1.68,0,0,1,1.18.4,1.32,1.32,0,0,1,.42,1v2.75h-.57l0-.57h0A1.37,1.37,0,0,1,13,32.3Zm.12-.56a1.09,1.09,0,0,0,.83-.32,1,1,0,0,0,.32-.77V30.3h-1c-.67,0-1,.24-1,.73a.65.65,0,0,0,.23.52A.91.91,0,0,0,13.12,31.74Z"/><path d="M21.75,32.3a1.73,1.73,0,0,1-1.38-.56,2.74,2.74,0,0,1,0-3.1A2,2,0,0,1,23,28.48a1.61,1.61,0,0,1,.47,1.07h-.67a.91.91,0,0,0-.3-.65,1.08,1.08,0,0,0-.71-.23,1,1,0,0,0-.88.42,1.93,1.93,0,0,0-.29,1.1,2,2,0,0,0,.29,1.11,1,1,0,0,0,.88.41,1.05,1.05,0,0,0,.72-.22,1,1,0,0,0,.31-.63h.67A1.53,1.53,0,0,1,23,31.91,1.7,1.7,0,0,1,21.75,32.3Z"/><path d="M28.48,32.23V26.31h.68v2.47h0a1.3,1.3,0,0,1,1.25-.71,1.43,1.43,0,0,1,1.06.4,1.52,1.52,0,0,1,.39,1.11v2.65h-.68V29.68c0-.67-.32-1-1-1a1,1,0,0,0-.8.36,1.41,1.41,0,0,0-.29,1v2.24Z"/><path d="M37.13,27.3v-.79h.75v.79Zm0,4.93V28.14h.67v4.09Z"/><path d="M43.13,32.23V28.14h.58l.06.64h0a1.32,1.32,0,0,1,1.27-.71,1.42,1.42,0,0,1,1,.4,1.57,1.57,0,0,1,.38,1.11v2.65h-.68V29.68c0-.67-.31-1-.94-1a1,1,0,0,0-.79.35,1.46,1.46,0,0,0-.29.95v2.26Z"/><path d="M51.74,27.3v-.79h.76v.79Zm0,4.93V28.14h.67v4.09Z"/><path d="M57.74,32.23V28.14h.59l.05.64h0a1.32,1.32,0,0,1,1.27-.71,1.41,1.41,0,0,1,1,.4,1.53,1.53,0,0,1,.38,1.11v2.65h-.67V29.68c0-.67-.32-1-.94-1a1,1,0,0,0-.8.35,1.46,1.46,0,0,0-.29.95v2.26Z"/><path d="M67.94,34.13a1.85,1.85,0,0,1-1.25-.39,1.26,1.26,0,0,1-.49-1h.65a.74.74,0,0,0,.3.57,1.17,1.17,0,0,0,.79.24,1.08,1.08,0,0,0,.85-.31,1.1,1.1,0,0,0,.29-.79v-.79h0a1.32,1.32,0,0,1-1.23.63,1.51,1.51,0,0,1-1.28-.58,2.5,2.5,0,0,1-.45-1.53,2.36,2.36,0,0,1,.47-1.56,1.53,1.53,0,0,1,1.26-.56,1.33,1.33,0,0,1,1.23.64h0l.09-.57h.58v4.33a1.6,1.6,0,0,1-.48,1.2A1.82,1.82,0,0,1,67.94,34.13Zm0-2.42a1,1,0,0,0,.88-.44,1.84,1.84,0,0,0,.29-1.08,1.94,1.94,0,0,0-.29-1.09,1,1,0,0,0-.88-.43,1,1,0,0,0-.88.43,2.26,2.26,0,0,0,0,2.18A1,1,0,0,0,67.92,31.71Z"/></g></g></svg>